<?xml version="1.0" standalone="no"?><!DOCTYPE svg PUBLIC "-//W3C//DTD SVG 1.1//EN" "http://www.w3.org/Graphics/SVG/1.1/DTD/svg11.dtd"><svg t="1774704246851" class="icon" viewBox="0 0 1114 1024" version="1.1" xmlns="http://www.w3.org/2000/svg" p-id="18394" xmlns:xlink="http://www.w3.org/1999/xlink" width="217.578125" height="200"><path d="M436.138291 57.575875c48.468575-4.169525 92.009686 8.146557 130.619896 36.951682 33.373384 37.216358 31.654701 73.882738-5.156049 109.995702a383.048002 383.048002 0 0 1 92.808874 19.764853 618.526458 618.526458 0 0 0 49.841803-36.951682c10.39975-0.909183 20.137807-0.049842 29.217608 2.578025 6.044608-5.979298 13.493379-9.131362 22.342877-9.452756 31.491426-1.533065 58.990351 8.204992 82.496777 29.217608 32.338736 30.623491 57.259638 66.430529 74.762704 107.417678 45.756493 113.867895 62.083981 230.166007 48.982461 348.892618a861.916011 861.916011 0 0 0 11.171438 92.808874c4.683411 38.998632 2.390688 78.528338-6.874731 118.589117-3.387524 13.665247-9.976954 25.410726-19.764853 35.232998-6.108199 3.292996-12.697629 5.296981-19.764852 6.01539-64.607007 0.374673-119.030818-23.686887-163.274871-72.18468-18.441467-24.714659-29.325885-51.641264-32.654974-80.778093a263.395021 263.395021 0 0 1-38.670364 23.202218c9.294637 8.560759 14.735987 19.159876 16.327487 31.795633 3.537049 41.160736-13.362759 70.665364-50.701144 88.512166-19.866255 8.35108-40.205148 11.501426-61.013241 9.452756-48.007968-14.153353-66.054138-45.374946-54.13851-93.668215-8.708566-0.213117-17.874302 0.646225-27.498925 2.578024a9490.595902 9490.595902 0 0 1-66.16929-5.156048c-3.2105 47.170969-28.131401 76.675598-74.762704 88.512166-43.12519 2.131167-70.338814-17.633686-81.637435-59.294558-4.16265-29.050896 4.145463-53.684777 24.920901-73.903362a249.294947 249.294947 0 0 0-19.764853-13.749463l-3.437365 3.437365a17.630249 17.630249 0 0 0-2.578025-6.874731 100.584195 100.584195 0 0 0-17.186828-13.749463c-9.784461 49.64931-31.555017 92.901683-65.309948 129.760555-20.417952 19.804382-44.766532 31.548142-73.044021 35.232999-43.835006-3.047225-71.333932-25.962423-82.496777-68.747314-4.884497-21.667435-6.8902-43.723292-6.01539-66.16929a3476.29558 3476.29558 0 0 1 13.749463-67.028631C50.62226 574.961285 70.961153 444.054369 122.478671 317.096985c17.449787-41.485567 42.370688-77.863208 74.762704-109.13636 16.423733-12.642631 35.042225-19.804382 55.857192-21.483536 21.325417 1.347447 38.226944 10.513183 50.701144 27.498926 11.051131-4.530448 22.509589-6.536151 34.373657-6.01539a1121.119164 1121.119164 0 0 1 18.905512 36.951681c41.674622-21.165579 85.788054-34.628022 132.338579-40.389047 13.730557-29.499472 12.298894-59.002382-4.296707-88.512167-18.697551-26.409281-43.618452-38.154759-74.762704-35.232998-8.560759-5.843522-8.846061-11.858912-0.859342-18.04617a439.257525 439.257525 0 0 1 26.639585-5.156049z" fill="#040404" opacity=".954" p-id="18395"></path><path d="M229.896349 61.013241c6.709738-0.752783 11.006445 2.110543 12.890121 8.593414l17.186829 37.811023c1.417913 3.781102 0.558572 6.933167-2.578025 9.452756-3.511269 1.598375-6.661615 2.457716-9.452755 2.578024A225.773054 225.773054 0 0 1 224.7403 68.747314c0.873091-3.253467 2.591774-5.831491 5.156049-7.734073z" fill="#221C1C" opacity=".87" p-id="18396"></path><path d="M467.074582 76.481387c31.180344-1.73587 59.251591 7.142846 84.215459 26.639584 25.338541 22.346314 29.062927 47.839537 11.171439 76.481387a127.866566 127.866566 0 0 1-26.639584 23.202218c-9.021366 2.97504-18.187102 3.260341-27.498926 0.859341 16.824186-52.643256 3.074724-95.036287-41.248388-127.18253z" fill="#A1D2C9" p-id="18397"></path><path d="M178.335863 88.512167c2.07445 1.184172 4.365454 1.469474 6.874732 0.859341A484.65997 484.65997 0 0 0 217.006227 126.323189c4.702316 11.262529 0.979649 16.131557-11.171438 14.608804A1531.363604 1531.363604 0 0 0 174.039156 103.980312c-4.154056-6.910824-2.722394-12.066872 4.296707-15.468145z" fill="#221C1C" opacity=".894" p-id="18398"></path><path d="M145.680889 145.228701a859.857029 859.857029 0 0 0 44.685754 26.639584c6.496621 5.979298 6.496621 11.707668 0 17.186828-3.437366 1.146361-6.874731 1.146361-10.312097 0a690.078662 690.078662 0 0 0-39.529705-24.06156c-10.394594-10.288036-8.675911-16.877466 5.156048-19.764852z" fill="#221C1C" opacity=".887" p-id="18399"></path><path d="M757.531983 196.789186c30.119917 0.168431 55.90016 10.765829 77.340728 31.795633 29.714308 31.010195 52.342486 66.815514 67.887973 107.417678 42.17304 111.324244 56.207804 226.188975 42.107729 344.595911 3.899691 44.720128 7.909378 89.405882 12.03078 134.057262 2.005703 27.758447-3.435647 53.825709-16.327487 78.200069-2.266943 3.415023-5.417288 5.420726-9.452755 6.01539-71.586578 3.019726-127.443771-24.76622-167.571578-83.356118-12.061716-20.208273-16.645443-41.978829-13.749463-65.309948a560.197799 560.197799 0 0 0 37.811023-36.09234l32.654974-41.248388c11.307214 2.552244 21.906332 0.546541 31.795633-6.01539 37.053084-26.792547 58.536619-63.171907 64.450606-109.136361 6.156322-35.528612 1.000273-69.329947-15.468145-101.402288-9.012773-15.526581-21.902894-26.410999-38.670364-32.654974a242.038668 242.038668 0 0 1-6.874732-18.04617 192.310299 192.310299 0 0 1 16.327487-24.920901c7.644701-14.545213 10.509746-30.013359 8.593415-46.404437-12.587633-50.039451-40.9459-88.709815-85.074801-116.011092a581.289475 581.289475 0 0 1-37.811023-21.483536z" fill="#A3D4CB" p-id="18400"></path><path d="M240.208446 203.663917c18.934729-1.613843 34.975196 4.401547 48.12312 18.04617-58.051951 29.973829-98.439279 75.518924-121.167141 136.635287a106.895198 106.895198 0 0 0-3.437366 37.811022 19.814695 19.814695 0 0 0 6.01539 7.734073c8.75497 2.13976 16.774345 5.577126 24.06156 10.312097a468.241392 468.241392 0 0 0-16.327487 42.10773c-28.557634 12.520605-47.463146 33.718839-56.716534 63.591265-14.155072 62.943322 2.172415 116.507792 48.982461 160.696847 17.078551 13.902426 36.556384 21.349478 58.435217 22.342877a35.23128 35.23128 0 0 1 4.296707-6.01539l24.06156 30.936291c-3.894535 55.8211-25.950392 103.084879-66.16929 141.791335-19.317995 16.559509-41.660872 24.580602-67.028631 24.06156-22.033514-5.984454-37.78868-19.446896-47.263778-40.389047-15.760322-47.416741-14.328659-94.395218 4.296707-140.931994-12.457013-129.06277 5.015117-253.954296 52.419827-374.67286 14.732549-35.287996 33.638061-67.94297 56.716534-97.964923 13.962579-16.540604 30.862388-28.571384 50.701144-36.09234z" fill="#A3D4CC" p-id="18401"></path><path d="M864.09032 346.314594c-36.07859-53.55072-81.908987-96.803093-137.494628-129.760555a89.818366 89.818366 0 0 0-22.342877-7.734073c2.746455-3.555955 6.470841-5.274638 11.171438-5.156049 58.998945 12.006718 104.25702 43.515331 135.775945 94.527557 9.040272 14.797859 13.336979 30.838326 12.890122 48.12312z" fill="#615E60" p-id="18402"></path><path d="M704.252815 208.819966a89.818366 89.818366 0 0 1 22.342877 7.734073c55.585641 32.957462 101.416037 76.209835 137.494628 129.760555 0.788875 8.627788-0.929807 16.648881-5.156049 24.06156a325.862268 325.862268 0 0 0-26.639584-42.967072c-31.15972-38.053357-67.53908-69.84899-109.136361-95.386898-11.451584-6.147729-23.482364-9.872114-36.09234-11.171438a69.788836 69.788836 0 0 1 17.186829-12.03078z" fill="#D6A7C9" p-id="18403"></path><path d="M860.652954 483.809222v5.156048h-13.749463c-41.958204-3.769071-80.915588-16.659193-116.870434-38.670364-37.752587-22.853326-70.120541-51.785633-97.10558-86.793484a317.827426 317.827426 0 0 1-35.232999-71.325338c-3.873911-1.976485-7.883598-2.550525-12.03078-1.718683-20.871685 40.926995-51.235654 73.009647-91.090191 96.24624-5.953517 1.404164-11.683606 0.830124-17.186828-1.718683-24.589195-25.570563-38.62396-56.219835-42.10773-91.949532-4.513261-6.139135-9.66931-6.711457-15.468146-1.718683-39.517675 85.913518-98.239912 155.520174-176.164991 208.819966a240.802935 240.802935 0 0 1-60.1539 28.358267c-1.663685-3.621265-2.237725-7.632671-1.718683-12.03078 14.512558-106.120072 67.217686-187.185186 158.118822-243.193623 90.755048-52.593414 187.001287-65.770555 288.738718-39.529706 113.766492 33.564157 189.103236 106.608178 226.006795 219.132063a164.013904 164.013904 0 0 1 6.01539 30.936292z" fill="#A4D5CC" p-id="18404"></path><path d="M687.065986 220.850746c12.609976 1.299324 24.640756 5.02371 36.09234 11.171438 41.597281 25.537908 77.976641 57.333541 109.136361 95.386898a325.862268 325.862268 0 0 1 26.639584 42.967072 11434.912589 11434.912589 0 0 0-11.171438 18.905511c-39.440334-72.672786-97.301511-124.805592-173.586968-156.400139-1.060427-1.63103-0.775126-3.062693 0.859341-4.296707a79.322369 79.322369 0 0 1 12.03078-7.734073z" fill="#605E60" p-id="18405"></path><path d="M334.736003 236.318892c-4.99793-1.837272-10.153978-2.124292-15.468146-0.859342-63.455489 26.216788-107.854223 71.189562-133.197921 134.916604a70.586305 70.586305 0 0 0-2.578024 22.342877c-1.711808 0.147807-3.14519-0.426233-4.296707-1.718683-0.867935-16.896371 2.569431-32.938557 10.312097-48.12312 22.380688-42.999726 54.176321-77.088082 95.386898-102.261629 14.473028-8.356236 29.941174-13.799305 46.404437-16.327487-0.171868 4.482325 0.974493 8.493731 3.437366 12.03078z" fill="#605D60" p-id="18406"></path><path d="M334.736003 236.318892c1.782274 2.457716 2.928636 5.322761 3.437365 8.593414-60.526854 20.674036-104.925588 60.203741-133.19792 118.589116-4.929182 10.329284-6.934885 21.213702-6.01539 32.654974h-5.156049c-3.928909-0.163275-7.366275-1.309636-10.312097-3.437365a70.586305 70.586305 0 0 1 2.578024-22.342877c25.343697-63.727041 69.742431-108.699815 133.197921-134.916604 5.314167-1.264951 10.470216-0.977931 15.468146 0.859342z" fill="#D7A7C9" p-id="18407"></path><path d="M338.173368 244.912306c2.758486 3.107379 3.332526 6.544744 1.718683 10.312097-59.182844 33.974923-105.014959 80.951681-137.494628 140.931993-3.09191 2.213664-5.955236 2.213664-8.593414 0h5.156049c-0.919495-11.441272 1.086208-22.32569 6.01539-32.654974 28.272333-58.385375 72.671067-97.915081 133.19792-118.589116z" fill="#615E61" p-id="18408"></path><path d="M633.786818 391.000348a139.172062 139.172062 0 0 0-29.217608 8.593414 126.245849 126.245849 0 0 1-27.498926-14.608804c-11.735166-3.134878-17.176516 1.16183-16.327487 12.890121a455.780942 455.780942 0 0 0 30.07695 18.905512c-5.986172 20.722159-0.257802 37.049646 17.186828 48.982461-0.955588 0.658256-1.527909 1.517597-1.718683 2.578024-50.125385 14.165384-101.113549 18.462091-152.962773 12.890121a353.093079 353.093079 0 0 0-58.435217-11.171438c-3.07988-1.390414-6.517245-2.249756-10.312097-2.578024 18.316003-7.634389 24.618413-21.096832 18.905511-40.389047 0.424515-2.084762 1.570876-3.231124 3.437366-3.437366a303.610481 303.610481 0 0 0 39.529706-18.04617c8.15515-9.38229 6.436467-15.970001-5.156049-19.764853a179.306744 179.306744 0 0 0-41.248388 22.342877h-1.718683c-8.192961-5.405258-16.786375-8.270302-25.780243-8.593414a749.149792 749.149792 0 0 0 50.701144-80.778094 297.718836 297.718836 0 0 0 25.780243 56.716534c7.895629 11.336432 17.920706 20.215148 30.07695 26.639584 6.998477 1.130893 13.873208 0.558572 20.624194-1.718683 37.276512-20.660287 67.353462-49.018553 90.230849-85.0748 11.563298 27.160345 26.172102 52.368266 43.826413 75.622045z" fill="#FAF0E7" p-id="18409"></path><path d="M604.56921 399.593762c9.549002 4.985899 10.982383 11.86063 4.296707 20.624194-2.330534 1.512441-4.908558 2.086481-7.734073 1.718683l-10.312097-5.156048a455.780942 455.780942 0 0 1-30.07695-18.905512c-0.849029-11.728292 4.592321-16.024999 16.327487-12.890121a126.245849 126.245849 0 0 0 27.498926 14.608804z" fill="#090808" p-id="18410"></path><path d="M406.920682 423.655322c-0.58779-1.440256-1.732432-2.014296-3.437366-1.718683-2.966447-3.987344-4.112808-8.571071-3.437365-13.749463a179.306744 179.306744 0 0 1 41.248388-22.342877c11.592516 3.794852 13.311199 10.382563 5.156049 19.764853a303.610481 303.610481 0 0 1-39.529706 18.04617z" fill="#080808" p-id="18411"></path><path d="M633.786818 391.000348a486.175848 486.175848 0 0 1 34.373657 34.373657 525.851641 525.851641 0 0 0-4.296707 18.905511c-3.148627 4.917152-6.873013 9.213859-11.171439 12.890121 0.955588 0.658256 1.527909 1.517597 1.718683 2.578025a143.331275 143.331275 0 0 0-30.936291 3.437365c-6.103043-4.049217-12.118433-8.632944-18.04617-13.749462-4.496074-8.962931-5.929456-18.128667-4.296707-27.498926 2.825515 0.367798 5.403539-0.206242 7.734073-1.718683 6.685676-8.763564 5.252295-15.638295-4.296707-20.624194a139.172062 139.172062 0 0 1 29.217608-8.593414z" fill="#F6D0CC" p-id="18412"></path><path d="M626.912087 409.905859a46.954415 46.954415 0 0 1 22.342877 4.296707c7.821726 7.598297 8.681067 15.904691 2.578024 24.920902-11.315808 14.022733-23.631889 15.167376-36.951681 3.437365-6.489746-14.91473-2.480059-25.800867 12.03078-32.654974z" fill="#F7C0BE" p-id="18413"></path><path d="M398.327268 408.187176h1.718683c-0.675442 5.178391 0.470919 9.762119 3.437365 13.749463-6.812859-2.443967-8.531542-7.027694-5.156048-13.749463z" fill="#574D4B" p-id="18414"></path><path d="M590.819747 416.780591l10.312097 5.156048c-1.632749 9.370259-0.199367 18.535995 4.296707 27.498926 5.927737 5.116519 11.943127 9.700246 18.04617 13.749462l-17.186829 5.156049c0.190774-1.060427 0.763095-1.919769 1.718683-2.578024-17.444631-11.932815-23.173001-28.260302-17.186828-48.982461z" fill="#F9E0DA" p-id="18415"></path><path d="M372.547025 399.593762c8.993867 0.323112 17.587282 3.188157 25.780243 8.593414-3.375493 6.721769-1.65681 11.305496 5.156048 13.749463 1.704933-0.295613 2.849576 0.278427 3.437366 1.718683-1.86649 0.206242-3.012851 1.352603-3.437366 3.437366 5.712902 19.292215-0.589508 32.754658-18.905511 40.389047 3.794852 0.328268 7.232217 1.18761 10.312097 2.578024a3108.836031 3108.836031 0 0 0-54.997851-3.437366c1.906019-1.357759 4.197024-2.217101 6.874731-2.578024-4.248584-2.751611-5.967267-6.188977-5.156048-10.312097a70.03117 70.03117 0 0 1-5.156049-11.171439 999.76125 999.76125 0 0 1 36.09234-42.967071z" fill="#F4CECA" p-id="18416"></path><path d="M369.109659 418.499273a46.954415 46.954415 0 0 1 22.342878 4.296707c7.821726 7.598297 8.681067 15.904691 2.578024 24.920902-11.315808 14.022733-23.631889 15.167376-36.951681 3.437365-6.111636-14.689582-2.101949-25.574001 12.030779-32.654974z" fill="#F7C0BE" p-id="18417"></path><path d="M336.454685 442.560833a70.03117 70.03117 0 0 0 5.156049 11.171439c-0.811218 4.12312 0.907465 7.560486 5.156048 10.312097-2.677708 0.360923-4.968712 1.220265-6.874731 2.578024-15.215499 1.309636-28.964962 6.465685-41.248388 15.468146l-1.718683-1.718683 39.529705-37.811023z" fill="#F1E0D9" p-id="18418"></path><path d="M901.901342 511.308147c-4.506386 5.712902-8.230772 12.013593-11.171438 18.905511a382.585677 382.585677 0 0 1-8.593415 27.498926c-2.287567 14.660365-0.281864 28.409827 6.01539 41.248388-9.047147 21.280731-22.796609 38.752861-41.248388 52.419827-5.934612 3.84985-12.235303 6.140854-18.905511 6.874732 30.530682-46.789422 43.135502-98.064606 37.811022-153.822115 8.730909-0.042967 13.314636-4.339674 13.749463-12.890122a963.046747 963.046747 0 0 0-9.452755-47.263778c19.828444 17.88977 30.427561 40.232647 31.795632 67.028631z" fill="#5F5C5F" p-id="18419"></path><path d="M668.160475 425.374005c34.33069 28.923714 72.715753 51.266591 115.151751 67.028631a77.653528 77.653528 0 0 1 16.327487 17.186828c10.375688 23.808913 15.244717 48.729815 14.608804 74.762704a307.960467 307.960467 0 0 1-4.296707 48.982461l-13.749463 41.248389c-30.950041 48.965274-73.917112 82.19257-128.901213 99.683605a1942.757842 1942.757842 0 0 1-16.327488-6.01539c76.135931-33.914769 116.81028-92.635287 122.026483-176.164992-2.791141-77.256513-42.320846-121.369945-118.589117-132.338579-0.190774-1.060427-0.763095-1.919769-1.718683-2.578025 4.298426-3.676263 8.022812-7.97297 11.171439-12.890121a525.851641 525.851641 0 0 1 4.296707-18.905511z" fill="#F8EFE6" p-id="18420"></path><path d="M161.149035 647.084092c2.03492-22.162415-0.543104-43.932971-7.734073-65.309948-4.705754-12.27827-11.580485-23.164407-20.624194-32.654974-0.658256 0.955588-1.517597 1.527909-2.578024 1.718683 1.967892-30.8727 15.143315-55.506581 39.529705-73.903363-12.465607 64.830436-2.44053 126.128978 30.07695 183.899065a367.724226 367.724226 0 0 0 18.04617 24.06156c-8.352799-0.201086-16.373891-2.77911-24.06156-7.734073-13.376509-7.362837-24.260927-17.387914-32.654974-30.07695z" fill="#5E5C5E" p-id="18421"></path><path d="M640.661549 475.215807c63.082535 0.364361 101.178859 31.300652 114.29241 92.808874 6.451935 83.089722-27.06238 143.528923-100.542947 181.321041-74.860669 32.428108-152.201397 39.875161-232.022184 22.342877-15.523143-12.238741-33.282293-17.96711-53.279169-17.186829a4140.686809 4140.686809 0 0 1-27.498925-13.749463 688.234516 688.234516 0 0 1-45.545096-36.951681c-35.899847-48.692004-44.493262-101.971172-25.780242-159.837505 11.43096-30.339908 32.342174-50.677082 62.731924-61.013241 12.03078-1.146361 24.06156-1.146361 36.092339 0a951.524697 951.524697 0 0 1 99.683606 15.468146 415.173622 415.173622 0 0 0 104.839653-6.874732 2825.887556 2825.887556 0 0 1 67.028631-16.327487z" fill="#E19FA1" p-id="18422"></path><path d="M860.652954 483.809222c1.60525 1.835553 2.17929 4.126558 1.718683 6.874731-5.522128 0.532792-10.678177-0.03953-15.468146-1.718683h13.749463v-5.156048z" fill="#3F524E" p-id="18423"></path><path d="M283.175517 488.96527c2.626147 0.029218 3.485489 1.175579 2.578024 3.437366-27.643295 30.19382-41.105738 66.000859-40.389047 107.417678 0.67888 40.995742 12.99668 77.947423 36.951682 110.855043 18.427717 19.6772 39.338932 36.291707 62.731924 49.841803a62.147572 62.147572 0 0 1-12.03078 6.874731c-33.864927-18.09773-62.223194-42.731612-85.074801-73.903362-15.724229-41.581813-22.026639-84.548884-18.905512-128.901214 1.625874-18.068513 7.641264-34.396 18.04617-48.982461 13.312917-7.318152 25.343697-16.198586 36.09234-26.639584z" fill="#F3EAE1" p-id="18424"></path><path d="M812.529834 500.99605a325.939609 325.939609 0 0 0 36.09234 4.296707c7.129096 45.160111-0.317956 87.840162-22.342877 128.041872l-1.718683-1.718683c9.794774-44.859341 5.785086-88.398734-12.03078-130.619896z" fill="#9FCFC6" p-id="18425"></path><path d="M901.901342 511.308147a86.814108 86.814108 0 0 1 0 34.373657c-3.566267 6.830046-5.28495 14.278817-5.156048 22.342877a103.688136 103.688136 0 0 1-8.593415 30.936291c-6.297254-12.838561-8.302957-26.588024-6.01539-41.248388a382.585677 382.585677 0 0 0 8.593415-27.498926c2.940666-6.891918 6.665052-13.19261 11.171438-18.905511z" fill="#D0A2C3" p-id="18426"></path><path d="M181.773229 516.464196c-0.519042 4.398109 0.054998 8.409515 1.718683 12.03078-0.103121 0.933245-0.675442 1.505566-1.718683 1.718682-2.234288-4.82778-2.234288-9.411507 0-13.749462z" fill="#425652" p-id="18427"></path><path d="M219.584252 530.213658c1.026054 0.40389 1.598375 1.263232 1.718683 2.578025a168.15593 168.15593 0 0 0-8.593415 54.138509 569.08339 569.08339 0 0 0 9.452756 79.059411c-23.31737-33.550408-37.352134-70.789109-42.10773-111.714385l1.718683-8.593414a370.896915 370.896915 0 0 0 37.811023-15.468146z" fill="#A0D0C7" p-id="18428"></path><path d="M161.149035 647.084092c-14.959416-18.482715-24.412171-39.68095-28.358267-63.591265a203.096752 203.096752 0 0 1-2.578024-32.654974c1.060427-0.190774 1.919769-0.763095 2.578024-1.718683 9.043709 9.490567 15.918441 20.376704 20.624194 32.654974 7.190969 21.376977 9.768993 43.147533 7.734073 65.309948z" fill="#D3A5C6" p-id="18429"></path><path d="M901.901342 545.681804c-0.412484 7.940315-2.131167 15.387368-5.156048 22.342877-0.128901-8.06406 1.589782-15.512831 5.156048-22.342877z" fill="#695F66" p-id="18430"></path><path d="M360.516245 772.54794a70.31819 70.31819 0 0 1 15.468146 0.859341 463.992808 463.992808 0 0 0 36.09234 12.03078c18.195695 19.448615 21.920081 41.506191 11.171438 66.16929-18.336627 33.61228-46.122573 45.928362-83.356118 36.951681-19.862818-10.477091-30.174915-27.089879-30.936291-49.841802 3.518144-32.990117 20.704972-55.045974 51.560485-66.16929z" fill="#F9F0E8" p-id="18431"></path><path d="M616.59999 784.57872c26.077575-4.00625 48.135151 3.440803 66.169289 22.342877 14.304597 34.43553 5.424163 61.647435-26.639584 81.637435-23.870786 12.726846-48.506386 14.445529-73.903362 5.156049-28.51123-18.65974-34.52662-43.006601-18.04617-73.044021 13.098082-18.563493 30.570212-30.594273 52.419827-36.09234z" fill="#FAF1E8" p-id="18432"></path><path d="M712.846229 793.172134c-1.146361-2.291004-1.146361-2.291004 0 0z" opacity=".02" p-id="18433"></path><path d="M439.575656 791.453451a1017.614927 1017.614927 0 0 0 65.309948 5.156049 921.564618 921.564618 0 0 1 60.1539-2.578024 293.47369 293.47369 0 0 0-13.749463 16.327487 473.390566 473.390566 0 0 0-66.169289 0 214.096322 214.096322 0 0 1-42.10773-3.437366l-3.437366-15.468146z" fill="#EFE7DE" p-id="18434"></path><path d="M712.846229 793.172134c2.291004 1.146361 2.291004 1.146361 0 0z" opacity=".008" p-id="18435"></path></svg>