<?xml version="1.0" standalone="no"?><!DOCTYPE svg PUBLIC "-//W3C//DTD SVG 1.1//EN" "http://www.w3.org/Graphics/SVG/1.1/DTD/svg11.dtd"><svg t="1774703105502" class="icon" viewBox="0 0 1024 1024" version="1.1" xmlns="http://www.w3.org/2000/svg" p-id="14285" xmlns:xlink="http://www.w3.org/1999/xlink" width="200" height="200"><path d="M355.7 164.6c-2.4 4.9-5.4 9.6-7.2 14.7-19.8 57.2-26.4 115.2-10.8 174.7 2.4 9.3 0.3 19.9 0.3 31.5-14.6-23.6-15.6-49.4-20.4-74.5-13 20.1-17.9 42.9-25.8 66.7-13.2-34-9.9-66.8-3.6-99.4 6.3-32.7 16.6-64.1 36.3-91.8l-1.8-2.1c-16.6 11-33.4 21.5-49.6 33-16.1 11.4-31.5 23.6-47.9 34.8 24.8-56.9 66.1-97.6 124.2-124.3-28.3-12.5-53.4-27.4-70.1-54.8 10.5 2.9 19.7 6 29.2 7.8 15.4 3 30.9 5.8 46.5 7.3 17.9 1.7 34.9-0.5 52.1-8.4 28.4-13.2 57.4-25.9 88.8-30.6 52.5-8 103.7-5.6 150.4 23.2 30.1 18.6 52 45.1 68.6 76.1 3.1 5.7 6.4 11.4 10 17.7h-13.7c-0.2 0.7-0.4 1.3-0.6 2 2.5 1 5 2.3 7.6 2.9 16.8 3.8 22.1 16.8 12.6 31.6-3.1 4.8-6.6 9.4-9.9 14.1 1 0.9 2 1.8 2.9 2.7 2.8-4.1 5.6-8.2 8.4-12.4 0.6 0.3 1.2 0.7 1.9 1-1.1 29.4-2.3 58.8-3.4 88.2-0.8 0.3-1.6 0.6-2.4 1-14.8-65.8-37-128.1-84.2-178.3 8.7 12.7 18 25.1 26.1 38.2 13.9 22.5 26.2 45.7 28.3 72.9 0.7 9.6 0.8 10.6-3.7 14 2 1.6 6 3.2 6.2 5.1 4.2 54.7-1.3 108.4-16.6 161.1-0.2 0.8-0.9 1.6-0.5 0.9-17-42.6-34.3-86.1-51.7-129.8 3.1-3 6.6-6.3 10.1-9.6-0.5-1.1-1-2.1-1.4-3.2-4.8 1.4-9.6 2.9-15.2 4.6-12.1-20.7-24.6-42-37.9-64.8 22.5-16.4 45-32.7 67.5-49-0.5-0.7-1-1.4-1.5-2.2-22.3 15.9-44.5 31.9-67 47.9-15.6-23.6-31.4-47.3-47.1-71-0.1 82 12.1 161.8 27.8 243.4-6.2-3.4-10.4-5.9-14.8-8.1-41.2-21.4-65.9-56.7-83.9-98.2-17-39-26.8-79.6-31.4-122.3-10.5 21.3-16.1 44.3-23.8 67.5-12.7-8.2-24.9-16-37.1-23.8-0.4 0.7-0.9 1.4-1.3 2.1 9.4 6.3 18.7 12.9 28.3 18.9 6.1 3.9 7.8 7.8 5.7 15.4-17.9 63.5-28.5 128.2-29.3 194.3 0 2.1 0 4.2-0.9 6.5-25.1-39.8-42.6-82-43.8-129.8-1.4-46.3 3.4-91.6 20.5-135.4zM206 368.8c1.8 10.5 8.9 7.1 15.3 6.7-0.2 4-0.3 7.6-0.5 11.9h33c-2.4 16.4-4.8 31.2-6.6 46-1 8.4-0.9 16.9-1.5 25.4-0.3 4.7 1.3 6.8 6.3 7 7.5 0.4 14.9 1.5 24.3 2.6-4.4 8.9-8.2 17.3-12.6 25.3-20.9 37.3-40.6 75.2-53.5 116.2-12.1 38.5-18.9 77.8-19.1 118.6-3.9-24.3-7.9-48.6-11.8-72.9-11.5 29.9-13.2 61.9-15.7 93.5-2.6 32.3-0.8 64.6 10.7 96.5C118 817.8 85.5 774.3 74.8 714c-7.6-43.2-2.1-85.1 8.7-126.9 0.5-1.8 0.9-3.6 1.4-5.7-18 9.6-56.6 103.7-69.7 163.7 0-15.5-1.5-31.2 0.3-46.6C23.4 632.1 49 572.3 88.7 519c31.7-42.6 65.8-83.4 98.7-125.1 6.2-7.8 11.9-16.1 18.6-25.1z m603.2 345.5c0.2-3.8-0.4-7.9 0.6-11.5 8.4-28.9 18.7-57.4 25.2-86.7 7.6-34.6 2.3-69.4-6.1-103.5-6.4-26.1-14.1-52-21.6-79.5 15.5-1.3 31.3-3.1 47.1-3.9 7.4-0.4 10.2-3 9.2-10.3-2.6-18.6-5.1-37.3-7.6-56.1 0.2-0.2 0.7-0.8 1.2-0.9 14.7-3.8 15-3.9 21.9 9.7 33.5 65.8 67 131.6 90.4 202 18.1 54.4 27 109.7 18.4 167.1-3.5 23.6-17.5 71.1-26.4 85.8 9.8-56.2 7.8-111.5-0.5-167-1.1 6-2.9 11.9-3.1 17.9-1.1 35.1-17 63.7-38.4 90.2-27.9 34.7-55.7 69.5-83.6 104.2-1.5 1.9-3.2 3.7-6.3 5.3-3.1-70.9 4.6-141.1 12.7-211.3-0.9-0.4-1.7-0.7-2.6-1.1-2.3 3.7-4.9 7.3-6.7 11.2-5.4 11.3-10.4 22.9-15.9 34.2-1.4 2.8-2 8.4-7.6 4.4 0-0.1-0.3-0.2-0.3-0.2z" fill="#515151" p-id="14286"></path><path d="M434.7 161c5.7 49 21.2 94 43.7 137.1 16.7 31.9 40.5 56.3 71.5 74.3 2.2 1.3 4.3 2.5 6.5 3.9 0.5 0.3 0.9 0.9 2.5 2.6-3.3 1.2-5.9 2.6-8.7 3-17.7 2-35.4 4.6-53.2 5.3-9.5 0.4-9.8 6-10.7 12.1-3.3 21.1-2.1 41.9 6.9 63.9-13.7-1.6-26.2-2-38.1-4.7-15.8-3.7-31.3-8.9-46.6-14.3-8.6-3-13.7-9.7-16.5-19.1-10.2-34.4-4.8-68.5 0.5-102.7 0.9-5.5 2-11 3.1-17.2 21.9 10.7 42.9 21.1 65.6 32.2-17.5 11.4-33.7 22-50 32.5-2.1 1.4-4.7 2.2-6.4 3.9-1.7 1.7-2.4 4.3-3.6 6.5 2.5 0.1 5.6 1.2 7.3 0.1 14.4-8.9 28.7-18.1 42.9-27.3 5.3-3.4 10.6-6.8 15.5-10.8 2.2-1.7 4.4-4.7 4.5-7.2 0.1-1.6-3.5-3.9-5.8-5-22.6-10.9-45.3-21.7-69-33 5.9-25.3 11.7-49.9 17.8-75.7 12.5 7.3 23.5 13.7 34.5 20.2l1.2-1.8c-11.2-7.1-22.4-14.1-33.7-21.2 6.3-19.6 12.3-38.6 18.3-57.6z m131.9 334.5c3 2.5 5.1 4.2 8.2 6.7 4.4-11 8.5-21.2 12.6-31.5 0.8 0 1.7 0.1 2.5 0.1 3 20.2 6 40.4 9 60.7 3.5 23.4 8.7 46.4 22.3 66.4 4.6 6.8 3.5 11.8-2.2 17.1-18.2 16.8-36.2 33.8-54.3 50.7-7.3 6.8-14.2 6.8-21.1-0.6-10.3-10.9-21.2-21.4-30.9-32.8-5.3-6.2-9.6-8.3-17.5-4.9-11.7 5.1-23.9 8.8-37.4 13.7-0.8-8.7-1.3-15.5-2.1-22.3-1.6-13.1-3.1-26.2-5.3-39.2-1.1-6.5-0.1-10.7 6.8-13.2 6.2-2.2 12-5.4 18-8.3 4.6-2.2 9.7-2.9 11.3-9.8 0.9-3.8 8.2-5.9 9.8-9.9 5.4-13.3 9.4-27.2 14.3-40.8 2.4-6.5 5.7-12.6 10.7-18.2 0.9 6.4 1.7 12.7 2.6 19.7 2.8-0.6 4.8-1 9-1.8-0.8 8.6 0.5 17.8-2.9 24.4-6.5 12.4-15.5 23.6-24 34.9-4.2 5.7-5.1 10.9-2.1 17.4 3.8 8.3 7.1 16.8 10.3 25.3 2.3 5.9 6.2 7.2 11 3.7 10.6-7.8 21.2-15.7 31.1-24.3 6.2-5.4 7.5-12.6 6.4-21.4-2-16-3.8-32.3 2.8-48.2 1.4-3.5 0.7-8 1.1-13.6z m247.8-205c6.2 46.3 12 89.5 17.6 131.5-53.6 12.6-106.9 25.1-161.2 37.8 4.8-6.2 3.5-15.8 13.5-18.4 1.4-0.4 2.4-3.5 3.1-5.5 9-25.4 20.3-50.4 26.1-76.6 3.9-17.7 13.8-26.2 27.8-33.1 24-11.9 48.3-23.6 73.1-35.7z" fill="#515151" p-id="14287"></path><path d="M571.4 383.3c4.6-10.4 8.5-11.1 16.4-2.4 12.9 14.2 21.4 30.8 26.1 49.4 1.2 4.7 0.4 7.6-4.5 9.6-33.5 13.4-67.8 22.8-104.2 22.5-7 0-9.9-2.6-12.2-8.8-6.7-18.4-5.3-37.1-2.1-55.8 0.4-2.4 4.8-5.3 7.7-5.8 20-3.2 40.1-6 60.2-8.7 3.7-0.4 7.7 0 12.6 0z m-189.8 89.2c-18.1-1.6-34.6-3-51-4.6-17.5-1.7-34.9-3.6-52.4-5.3-4.7-0.4-8-1.3-7.3-7.1 3.6-27.8 7-55.6 12.7-83.2 2.4 6.3 4.8 12.5 7.7 20.2 14.4-11 18.4-26.9 26.9-39.6 5.2 12.2 9.8 24.5 15.6 36.4 6.7 13.8 7.6 13.7 18.3-0.5 10 28.2 19.3 54.8 29.5 83.7z" fill="#515151" p-id="14288"></path><path d="M563.2 330.6c23.8 8.8 46.1 17.1 68.5 25.4 2.4 0.9 4.6 2.4 7 2.7 2.4 0.3 4.9-0.6 7.3-1-1.5-2-2.5-5.2-4.5-6-14.5-5.9-29.2-11.5-43.9-17-7.6-2.8-15.4-5.3-24.8-8.6 18.3-14.2 35.5-27.5 53.8-41.7 10.5 25.5 28.4 47.1 25.2 76.7-1.8 16.5-0.7 33.3-1.1 49.9-0.1 2.6-0.8 6.3-2.6 7.4-9.3 6.2-18.9 11.8-26.5 16.4-9.1-17.8-17-34.7-26.2-50.9-5.2-9.1-12-18-25.5-10.2-2.3-14.5-4.3-27.7-6.7-43.1z m-20-185.9c13.4 20.8 26.8 41.6 40.6 63.1-8.9 7.6-17.4 14.8-25.9 22.1 0.4 0.6 0.9 1.2 1.3 1.7 8.4-6.6 16.9-13.3 26.3-20.6 12 21.2 23.7 41.6 35 62.1 0.9 1.5 0.4 5.3-0.9 6.3-18.7 14.8-37.5 29.3-57.2 44.4-12.6-59.7-17.5-119-19.2-179.1zM766.6 306c0-7.9-0.7-14.9 0.1-21.7 3.3-29 7.6-57.8 10.4-86.8 0.8-8.4-0.7-17.5-3.2-25.7-4.2-14-10.1-27.6-15.2-41.2 13.5-11.2 20.2-8.9 24.9 6.9 7.3 24.9 15.5 49.6 23.5 74.3 7.3 22.7 14.9 45.4 22.5 68.4-20 8.2-40.2 16.5-63 25.8zM535.5 738.2h41.2c-4 38.3-8 76.8-12.3 115.4-0.2 2.2-2.9 4.8-5 6-9.9 5.6-20.4 5.9-30.9 1.9-11.3-4.3-13.1-10-10.9-21.7 5.8-30.8 10.9-61.7 16.2-92.6 0.5-3 1.1-6 1.7-9z m-127-78.8c4.6 7.7 10.2 16.1 14.7 25 1.1 2.1-0.4 7.7-2.4 8.8-28.9 15.8-58 31.1-87.1 46.5-5.8 3.1-11.1 1.9-15.2-2.9-3.6-4.2-7.3-8.7-9.9-13.5-11.2-20.7-9.9-23.1 11.4-30.7 29.1-10.6 58-21.8 88.5-33.2z" fill="#515151" p-id="14289"></path><path d="M754.5 187.8c-6.6 0.4-10.2 0.6-13.4 0.8-12.5-45.7-33.7-87.3-53.1-130.4 5.9-2.1 10.8-4.2 15.9-5.5 7.4-1.9 13.2-0.2 16.5 7.7 16.1 37.8 32.4 75.5 48.6 113.2 1.9 4.4 2.2 7.7-3.4 10.7-2.7 1.5-4 7.1-4.3 11-2.4 33.8-4.4 67.7-6.7 101.5-0.5 6.8-0.9 6.8-7.5 7.4 2.5-38.4 4.9-76.7 7.4-116.4zM519.2 603.2c-4.9-12.2-9.5-22.9-13.3-33.8-0.9-2.4-0.1-6.4 1.4-8.6 8.5-12.4 17.9-24.2 26.1-36.8 5.7-8.9 13.7-5.1 20.9-5.1 0.9 0 2.6 3.7 2.8 5.8 1 12.2 1.9 24.4 2.5 36.6 0.1 3.3 0 7.3-1.7 9.8-9.7 14-23.9 22.4-38.7 32.1zM242.5 310.7c6.2-25.4 11.6-51.2 19.2-76.2 2.2-7.2 10.7-12.4 16.2-18.4 10.4 32.9 6.8 64.2 1.2 95.3-1 5.7-3.8 11-5.8 16.7-11.3-6.4-21.8-12.3-30.8-17.4z m616.4 113c-7.7 0.6-13.9 1.1-21.3 1.7-2.3-15.8-4.8-31.2-6.9-46.6-3.5-26.1-6.5-52.3-10.2-78.4-1.3-9.2 0.9-14.6 12.8-14.4 7.8 45.4 24 89.5 25.6 137.7zM871.6 286c-4.6 9.5-9.3 19-13.9 28.5 1.3 0.5 2.6 1.1 3.9 1.6 1.4-5.2 2.9-10.4 4.5-16.4 10-1.6 20.7-5.9 34 2.5-9.9 4.7-17.5 8.2-27.2 12.8 9.8 2.7 17.2 4.7 24.6 6.7v3.8c-6.2 1.8-12.4 3.6-20.4 5.9 7.1 3.9 12.9 7 18.7 10.2-0.3 1-0.5 1.9-0.8 2.9h-18.1c-0.7 0.9-1.4 1.9-2 2.8 3.9 2 7.9 4.1 11.8 6.1-0.7 1.2-1.5 2.5-2.2 3.7-2.8-0.1-5.5-0.1-8.2-0.4-3.1-0.4-6.2-1.8-9.1-1.5-17.9 2.3-14.2 1.2-18.1-13.4-3.3-12.1-5.9-24.4-7.9-36.8-0.5-2.9 1.6-7.9 4.1-9.5 8-4.9 16.6-8.5 25-12.7 0.5 1.2 0.9 2.2 1.3 3.2z m-2.1 60.9c5.3-8.5 5.5-27.8 0-32.3v32.3z m-642.1 6.8l7.8 17.4c0.5-0.2 1.1-0.3 1.6-0.5-2.4-10.5-4.7-21.1-7.6-31.6-0.4-1.4-4.2-2-6.4-2.8-5.5-1.8-10.9-3.6-17.1-5.6 7.3-8.2 19-8.9 32.2 0.7 8.5 6.2 14 16.6 20.8 25.1 0.8-0.7 1.6-1.3 2.4-2-8-9.8-16-19.5-23.8-29.4-1.5-1.9-3-5.5-2.2-7.2 0.8-1.7 5.4-3.4 6.9-2.6 9.9 5.8 19.4 12.2 28.9 18.7 0.7 0.5 0.7 2.9 0.2 4.2-4.5 14-9 28.1-13.8 42-0.5 1.4-2.5 3.1-3.8 3.1-9.7 0.3-19.4 0.1-31.6 0.1 3.4-5.3 5.9-9.1 8.5-13.2-6.3 1-12.7 2-19.2 3l-2.1-3c3.8-3.8 7.4-7.7 11.3-11.4 2.1-2 4.7-3.6 7-5.4 0.2 0.2 0 0.4 0 0.4z m50-20.5c3.7 17 2.4 31.9-0.5 47.2-5 26.8-8.3 53.9-12.5 82-3.9-0.4-8.5-0.9-14-1.5-0.6-44.3 10.1-85.7 27-127.7z m359.9 131.6c-14.2 7.8-27.2 15-40.9 22.5-0.9-3.3-2-6.4-2.6-9.7-5-26.4-1.9-26.3 17.5-34.9 5.7-2.5 11.3-5.1 17.8-8.1 2.9 10.4 5.6 20.3 8.2 30.2zM519.4 668.5c-12.1 0-22.6 0.2-33.2-0.1-7.7-0.2-16.4-8.4-16.5-15.1 0-5.5 8.4-12.8 15.2-14.1 12-2.4 22.1 2.6 32.1 7.6 2 1 3.8 4.3 3.8 6.6 0.1 5.2-0.9 10.4-1.4 15.1z m58.6 26.1c0 11.2 0.6 20.9-0.3 30.4-0.3 3-4.3 7.8-6.8 8-11.6 0.9-23.3 0.4-36 0.4 1-8.9 1.7-15.9 2.3-21.3 13.5-5.8 25.9-11.1 40.8-17.5z m79.2-343c4.9 15.5 10.1 30.9 14.7 46.4 0.8 2.7 0.1 6.4-1.1 9.1-5.4 12.2-11.3 24.3-17 36.4v-91.8c1.2 0 2.3-0.1 3.4-0.1zM290.5 158.9c4.2-17.5 7.9-32.6 11.5-47.6 11.2-2.7 17.1 5.8 23.6 11.2 1.7 1.4-0.3 11-3.3 13.6-9.3 8-20 14.6-31.8 22.8z m236.2 496.8c13.6 10.6 24.3 31.2 45.1 9.5 0.5 9.7-1.7 15.2-9.7 17.7-6.5 2.1-12.8 4.9-19.1 7.6-10.7 4.5-19.4-1.5-18.5-13 0.6-7 1.4-14 2.2-21.8z m-98.9-9.3c3.1 4.9 5.8 8.7 8 12.8 3.1 6.1 6.5 9.2 13.8 5.1 1.9-1 6.1 2.1 11.7 4.3-11.8 7.6-20.8 13.5-30.7 19.9-6.8-11.4-13.3-22.3-20.1-33.8 6.1-2.9 11.4-5.5 17.3-8.3z" fill="#515151" p-id="14290"></path><path d="M590.9 452.5c-5.7 15-11.1 29.3-16.7 44-6.8-5.1-13.4-9.9-20-14.9 6-15.6 14.2-29.3 36.7-29.1z m-120.3 24.9c1-9.9 5.2-13.8 15.9-12.3 11 1.5 22.3 0.3 34.6 0.3-1.1 3.5-1.6 5.5-2.4 7.5-5.6 13.3-5.8 13.4-19.9 10.8-8.6-1.6-17.2-3.4-25.9-5.1-0.8-0.2-1.6-0.8-2.3-1.2z m-20 176.5c8.8-1.8 14.9 0.8 19.2 9.2 3.6 7.2 10.2 10.3 18.7 10.1 8.7-0.2 17.5 0.4 26.2 1.1 1.8 0.1 3.5 2.3 5.3 3.6-1.7 1.3-3.4 3.6-5.2 3.7-11.5 0.9-23.1 1.7-34.6 1.7-3.4 0-7.8-2.1-10.1-4.8-6.9-7.6-12.8-16-19.5-24.6z m112.2-152.4c0.1 10.5-2.6 11.8-17.7 12.6-9.3 0.5-10.1-4.6-10-11.6 0.1-7.8 7.4-14.5 16.6-14.8 7.7-0.2 11.1 4 11.1 13.8z m11.5 190.4c-19 8-37.4 25.4-59.9-0.1 5.3 0.4 9.2-0.3 11.9 1.2 7.2 4 13.6 4.9 21.1 0.3 5.2-3.2 11.3-5.5 17.4-6.9 3.1-0.7 6.8 1.4 10.2 2.3-0.3 1.1-0.5 2.2-0.7 3.2zM653.6 454c1 4.6 1.8 8.2 2.8 12.4-4.9 1.8-9.1 3.3-13.3 4.8-10.1-22.7-9.5-36.1 3.2-45.5v36.6c1.9-2.2 4-4.6 7.3-8.3z m-269.5-7.7v-31.1c1 0 2.1-0.1 3.1-0.1 0.9 18.4 1.7 36.8 2.6 55.1-1.2 0.3-2.3 0.6-3.5 0.9l-14.7-38.4c0.8-0.4 1.7-0.9 2.5-1.3 2.9 4.4 5.8 8.7 10 14.9z m233 236.7c3.1-17.3 17.5-25.3 29.3-37.5-1.4 17.2-16.5 35.7-29.3 37.5z m-73-201.5c-6.2 4.8-11.5 9-17.8 13.9-0.9-8.2-2.1-15.8-2.1-23.3 0-2.4 2.9-5.9 5.4-6.9 1.6-0.7 5.3 1.7 6.9 3.7 2.9 3.9 5.1 8.4 7.6 12.6z m89.2 170.2c-5 5.2-8.6 9-13.5 14.2-3.5-8.7-6.7-15.9-9.3-23.4-0.4-1.3 1-4.2 2.4-4.9 1.5-0.7 4.3-0.4 5.6 0.7 4.8 3.9 9.3 8.3 14.8 13.4zM265.5 181.4c0.5-4 1.1-8 1.5-12 1.8-15.4 2.6-16 18.9-12.6 0.6 13.6-13.3 16.1-18.2 25.4-0.7-0.3-1.5-0.5-2.2-0.8z m543.7 532.9l0.3 0.1c0.2 3.1 1.4 6.6 0.3 9.1-5.1 12.2-10.9 24.1-16.4 36.1-0.9-0.3-1.8-0.5-2.7-0.8 0-1.6-0.4-3.3 0.1-4.7 4.3-12.1 8.7-24.1 13.4-36 0.6-1.6 3.3-2.5 5-3.8zM407 463.9c14.4 4 27.4 7.7 40.4 11.3l-0.9 4.2c-13.2-1.8-26.4-3.7-40.5-5.6 0.4-3.4 0.6-5.9 1-9.9z m55.6 22.8c-4.5-1.5-8.2-2.7-11.9-3.9 7.3-20 7.3-20 18.4-17.5-2 6.9-4.1 13.8-6.5 21.4z m-235-133.2c-8.5 2.8-16.8 3.1-25.8-1.4 5.9-9.9 14.7-11.1 24.8-11.9 0.3 5 0.6 9.2 0.8 13.5l0.2-0.2z m333.8 105.7c-0.4 1.8-0.4 2.9-0.8 3.6-3.6 6.2-7.2 12.4-11.7 20.1-4-6.5-7.4-12-11.4-18.5 8.5-1.9 15.9-3.5 23.9-5.2z m53.4 210.3c-6.7 0.7-13.5 0.6-19.9 2.3-6.6 1.6-12.7 4.9-21.1 6 2.5-2.9 4.5-7 7.7-8.5 15.1-7.2 26.4-6.8 33.3 0.2zM439.5 625c0.6 7.9 1.2 15.9 1.9 23.8 0.9 0.1 1.7 0.2 2.6 0.2-2 1.9-3.9 3.7-6.8 6.4-2.8-5.7-7.8-11.3-7.4-16.5 0.3-4.7 6.5-9 10.1-13.4 0 0.1-0.4-0.5-0.4-0.5z m284.4-298c-1.7-8.7-3.3-17.5-5.2-27.1 14.6 2.3 14 12 13.9 21.7-7.8-4.9-7.4 1.5-8.7 5.4z m-14.5 13.3c-4.9-12.5-2.9-19.4 6.9-25 4.8 14.8 3.6 19.5-6.9 25z m-52.1 279.6c8.5 11.1 8.5 19.8 0 30.9v-30.9zM445 640.1c2.8-1.4 4.9-2.5 7.8-3.9 1.6 9.4 8.2 7.8 14.8 6.7-1.4 7.7-6.8 6-11.4 6.4-6.6 0.6-9.7-2.5-11.2-9.2z m-16.1-67.8c8 8.4 7.6 23.3 0 29.5v-29.5z m173.2 85.4c-8.2 2.5-14.9 4.6-21.6 6.7-0.3-0.6-0.7-1.2-1-1.8 5.8-4.6 11.6-9.2 18.4-14.5 1.5 3.6 2.7 6.2 4.2 9.6zM304.9 201c-1 8.6-1.7 15.4-2.5 22.2-7-11.6-6.5-17.2 2.5-22.2z" fill="#515151" p-id="14291"></path><path d="M439.5 625l0.4 0.6c1-6.9 2-13.7 3-20.1 4.8 10.3 4.1 15-3.4 19.5z" fill="#515151" p-id="14292"></path></svg>